#!OML:ASF X:\für Bonn\!DataBase\2005_08_12_Daniel\c3d\Daniel.ASF
:FULLY-SPECIFIED
:DEGREES
33
root 0.344544 15.1941 -0.781871 24.2786 -88.1724 -38.9577
lowerback 35.058 -2.09735 3.20983
upperback 2.7974 -2.19112 -1.83905
thorax -14.9573 -1.38344 -2.73273
lowerneck 7.35106 1.80733 -1.55105
upperneck 1.07093 2.22652 0.21551
head -0.910648 1.08227 0.259372
rclavicle -1.5207e-014 2.38542e-015
rhumerus 62.8082 2.2944 -98.6236
rradius 7.34529
rwrist 60.4812
rhand -19.9892 7.32726
rfingers 7.12502
rthumb 6.35027 -22.5576
lclavicle -1.5207e-014 2.38542e-015
lhumerus 65.3255 3.49096 103.044
lradius 6.88738
lwrist -78.3196
lhand -17.2262 3.54047
lfingers 7.12502
lthumb 9.01709 33.3278
rfemur -17.4198 -16.2982 8.94481
rtibia 69.1185
rfoot -23.1865 12.5523
rtoes -14.3245
lfemur -21.4205 10.2228 -8.18875
ltibia 70.339
lfoot -30.4847 -11.7328
ltoes 0.365824
34
root 0.37626 15.0429 -0.778885 25.8749 -88.2644 -40.6631
lowerback 35.6432 -2.07287 3.23666
upperback 2.75662 -2.14135 -1.84544
thorax -15.2362 -1.36876 -2.76331
lowerneck 7.25234 1.79696 -1.44907
upperneck 1.10557 2.2225 0.146292
head -0.88043 1.0817 0.222142
rclavicle -2.33572e-015 1.19271e-014
rhumerus 63.0509 2.32932 -98.4475
rradius 7.36202
rwrist 60.303
rhand -20.0182 7.38662
rfingers 7.12502
rthumb 6.32226 -22.499
lclavicle -2.33572e-015 1.19271e-014
lhumerus 65.4737 3.41104 102.974
lradius 6.84765
lwrist -78.4196
lhand -17.2922 3.55878
lfingers 7.12502
lthumb 8.95334 33.3488
rfemur -19.117 -16.7799 8.59709
rtibia 71.8482
rfoot -22.5712 13.3159
rtoes -13.9674
lfemur -22.658 10.8333 -7.9308
ltibia 72.4361
lfoot -30.6701 -12.3681
ltoes 0.354543
35
root 0.402586 14.8879 -0.777536 26.3172 -88.3223 -41.2645
lowerback 36.1883 -2.06153 3.24222
upperback 2.75824 -2.11898 -1.8437
thorax -15.4474 -1.36442 -2.76258
lowerneck 7.13734 1.80228 -1.41492
upperneck 1.18928 2.23398 0.119028
head -0.833609 1.08753 0.209048
rclavicle -1.02374e-014 3.97569e-015
rhumerus 63.329 2.39028 -98.2625
rradius 7.37663
rwrist 60.1246
rhand -19.9901 7.43797
rfingers 7.12502
rthumb 6.34939 -22.4469
lclavicle -1.02374e-014 3.97569e-015
lhumerus 65.6878 3.35082 102.911
lradius 6.77277
lwrist -78.5814
lhand -17.2979 3.62195
lfingers 7.12502
lthumb 8.94787 33.4122
rfemur -20.7047 -17.3053 8.20243
rtibia 74.5167
rfoot -21.93 14.092
rtoes -13.6217
lfemur -23.8361 11.354 -7.67384
ltibia 74.5437
lfoot -30.8362 -13.0452
ltoes 0.44919
36
root 0.424523 14.7271 -0.777576 25.9481 -88.3671 -41.1483
lowerback 36.8664 -2.0503 3.2258
upperback 2.70385 -2.1021 -1.83594
thorax -15.6568 -1.36151 -2.73997
lowerneck 7.02564 1.79383 -1.36519
upperneck 1.29628 2.22736 0.048747
head -0.779196 1.08467 0.1808
rclavicle -1.85864e-014 -2.14687e-014
rhumerus 63.6108 2.4437 -98.064
rradius 7.38585
rwrist 60.0095
rhand -19.9107 7.45972
rfingers 7.12502
rthumb 6.42606 -22.4228
lclavicle -1.85864e-014 -2.14687e-014
lhumerus 65.9148 3.29541 102.856
lradius 6.68222
lwrist -78.8287
lhand -17.2512 3.71075
lfingers 7.12502
lthumb 8.99297 33.4991
rfemur -22.1558 -17.8424 7.74278
rtibia 77.1517
rfoot -21.3228 14.8269
rtoes -13.3217
lfemur -24.9 11.8199 -7.39355
ltibia 76.657
lfoot -30.9872 -13.7524
ltoes 0.570532
37
root 0.445603 14.5619 -0.777462 25.1756 -88.3964 -40.6425
lowerback 37.4775 -2.05752 3.21026
upperback 2.71655 -2.11269 -1.83291
thorax -15.8777 -1.37082 -2.71054
lowerneck 6.94338 1.80517 -1.29475
upperneck 1.41786 2.24758 -0.0248554
head -0.7252 1.09493 0.147292
rclavicle -1.12313e-014 3.57812e-015
rhumerus 63.8823 2.52696 -97.8876
rradius 7.39413
rwrist 59.8927
rhand -19.7845 7.47509
rfingers 7.12502
rthumb 6.54786 -22.4037
lclavicle -1.12313e-014 3.57812e-015
lhumerus 66.1489 3.26015 102.788
lradius 6.58865
lwrist -78.9893
lhand -17.125 3.83307
lfingers 7.12502
lthumb 9.11472 33.6161
rfemur -23.5591 -18.4391 7.24164
rtibia 79.7379
rfoot -20.7479 15.5751
rtoes -13.1776
lfemur -25.9764 12.2792 -7.10734
ltibia 78.7872
lfoot -31.13 -14.4163
ltoes 0.52123
38
root 0.464383 14.3937 -0.777925 25.0032 -88.4335 -40.7552
lowerback 38.0607 -2.0435 3.20097
upperback 2.76373 -2.09595 -1.82299
thorax -16.0409 -1.36862 -2.68996
lowerneck 6.78832 1.79501 -1.22589
upperneck 1.55712 2.24078 -0.108624
head -0.653264 1.09192 0.112497
rclavicle -7.95139e-016 1.98785e-015
rhumerus 64.2015 2.58001 -97.6875
rradius 7.40286
rwrist 59.7773
rhand -19.6728 7.45221
rfingers 7.12502
rthumb 6.65572 -22.4232
lclavicle -7.95139e-016 1.98785e-015
lhumerus 66.4284 3.17879 102.744
lradius 6.45781
lwrist -79.1536
lhand -17.0731 3.94728
lfingers 7.12502
lthumb 9.16479 33.7281
rfemur -24.9148 -19.0478 6.72853
rtibia 82.2686
rfoot -20.2057 16.328
rtoes -13.0191
lfemur -27.0202 12.7641 -6.77547
ltibia 80.9184
lfoot -31.2023 -15.1271
ltoes 0.575937
39
root 0.482621 14.2264 -0.779 24.6627 -88.4552 -40.7012
lowerback 38.6366 -2.04074 3.20816
upperback 2.80131 -2.088 -1.82318
thorax -16.2113 -1.37152 -2.68566
lowerneck 6.64214 1.78815 -1.14071
upperneck 1.7212 2.23908 -0.180041
head -0.575344 1.09098 0.0788391
rclavicle -1.98785e-016 5.56597e-015
rhumerus 64.5118 2.60714 -97.496
rradius 7.39084
rwrist 59.6277
rhand -19.5143 7.47318
rfingers 7.12502
rthumb 6.8087 -22.3973
lclavicle -1.98785e-016 5.56597e-015
lhumerus 66.6689 3.09721 102.682
lradius 6.34585
lwrist -79.2257
lhand -16.9946 4.03726
lfingers 7.12502
lthumb 9.24053 33.8148
rfemur -26.1791 -19.6635 6.17833
rtibia 84.7049
rfoot -19.6163 17.2556
rtoes -12.583
lfemur -28.0725 13.2568 -6.41225
ltibia 83.058
lfoot -31.2307 -15.8971
ltoes 0.701772
40
root 0.499896 14.0561 -0.779858 24.4085 -88.4831 -40.737
lowerback 39.1991 -2.03699 3.19935
upperback 2.84048 -2.08401 -1.81061
thorax -16.3709 -1.37468 -2.65715
lowerneck 6.5652 1.78866 -1.09977
upperneck 1.80368 2.2431 -0.254278
head -0.535262 1.09332 0.0505191
rclavicle -3.8763e-015 -7.95139e-015
rhumerus 64.8003 2.67667 -97.3032
rradius 7.37966
rwrist 59.4825
rhand -19.42 7.45324
rfingers 7.12502
rthumb 6.89972 -22.4143
lclavicle -3.8763e-015 -7.95139e-015
lhumerus 66.9129 3.05882 102.623
lradius 6.20852
lwrist -79.1157
lhand -16.9566 4.07797
lfingers 7.12502
lthumb 9.27718 33.8539
rfemur -27.3858 -20.3292 5.60125
rtibia 87.0836
rfoot -19.1971 18.1208
rtoes -12.2986
lfemur -29.1276 13.8384 -6.01202
ltibia 85.2065
lfoot -31.2179 -16.6846
ltoes 0.732911
41
root 0.516841 13.8791 -0.780722 24.8387 -88.4866 -41.4845
lowerback 39.7738 -2.04395 3.23435
upperback 2.88602 -2.07627 -1.80453
thorax -16.5252 -1.37959 -2.66067
lowerneck 6.49863 1.78071 -1.02066
upperneck 1.84721 2.23888 -0.33403
head -0.508584 1.09222 0.0142252
rclavicle 3.18055e-015 5.56597e-015
rhumerus 65.0714 2.70134 -97.1115
rradius 7.40046
rwrist 59.3302
rhand -19.3589 7.42178
rfingers 7.12502
rthumb 6.95869 -22.4438
lclavicle 3.18055e-015 5.56597e-015
lhumerus 67.111 3.00402 102.55
lradius 6.12227
lwrist -78.9144
lhand -16.9761 4.10918
lfingers 7.12502
lthumb 9.25836 33.8859
rfemur -28.4897 -20.9988 5.01415
rtibia 89.3987
rfoot -18.8433 19.0423
rtoes -11.9681
lfemur -30.1819 14.4545 -5.53546
ltibia 87.3964
lfoot -31.177 -17.5112
ltoes 0.724884
42
root 0.532733 13.6963 -0.782156 24.2982 -88.4978 -41.2631
lowerback 40.3355 -2.05301 3.24842
upperback 2.9341 -2.08303 -1.8102
thorax -16.6696 -1.38965 -2.65954
lowerneck 6.48586 1.77368 -0.959927
upperneck 1.81 2.23423 -0.397638
head -0.516515 1.0914 -0.0150547
rclavicle -4.67144e-015 -4.37326e-015
rhumerus 65.3063 2.74568 -96.9407
rradius 7.48239
rwrist 59.2451
rhand -19.287 7.37004
rfingers 7.12502
rthumb 7.02811 -22.4933
lclavicle -4.67144e-015 -4.37326e-015
lhumerus 67.318 2.94413 102.471
lradius 6.00382
lwrist -78.5636
lhand -17.0313 4.12035
lfingers 7.12502
lthumb 9.20512 33.8994
rfemur -29.5437 -21.7262 4.36366
rtibia 91.671
rfoot -18.6105 19.9931
rtoes -11.6865
lfemur -31.2645 15.1204 -5.04772
ltibia 89.6142
lfoot -31.1199 -18.4055
ltoes 0.623824
43
root 0.547913 13.5086 -0.783296 25.2688 -88.4977 -42.5774
lowerback 40.8988 -2.05498 3.29661
upperback 2.99658 -2.06314 -1.79599
thorax -16.7913 -1.39043 -2.66706
lowerneck 6.47038 1.76118 -0.916441
upperneck 1.73337 2.22168 -0.44771
head -0.536656 1.08691 -0.0374196
rclavicle 4.96962e-015 1.31198e-014
rhumerus 65.5912 2.74335 -96.7252
rradius 7.51155
rwrist 59.1189
rhand -19.2351 7.37005
rfingers 7.12502
rthumb 7.07823 -22.4916
lclavicle 4.96962e-015 1.31198e-014
lhumerus 67.5116 2.89052 102.406
lradius 5.90814
lwrist -78.1127
lhand -17.1762 4.11044
lfingers 7.12502
lthumb 9.06528 33.8956
rfemur -30.5096 -22.468 3.70826
rtibia 93.8758
rfoot -18.3586 21.0271
rtoes -11.3096
lfemur -32.3306 15.8513 -4.46244
ltibia 91.8593
lfoot -31.0544 -19.2928
ltoes 0.383546
44
root 0.563015 13.315 -0.784691 26.2608 -88.4869 -43.901
lowerback 41.4505 -2.07445 3.35312
upperback 3.04285 -2.06164 -1.79094
thorax -16.9277 -1.39968 -2.68059
lowerneck 6.53912 1.758 -0.8625
upperneck 1.5447 2.22131 -0.506913
head -0.605727 1.0897 -0.0660775
rclavicle -1.0138e-014 1.19271e-014
rhumerus 65.8101 2.78331 -96.5548
rradius 7.58193
rwrist 59.032
rhand -19.2672 7.31272
rfingers 7.12502
rthumb 7.04721 -22.55
lclavicle -1.0138e-014 1.19271e-014
lhumerus 67.6383 2.85 102.32
lradius 5.88677
lwrist -77.6708
lhand -17.2821 4.08187
lfingers 7.12502
lthumb 8.96318 33.8715
rfemur -31.4556 -23.2826 3.01719
rtibia 96.0545
rfoot -18.1693 22.1074
rtoes -11.0066
lfemur -33.4459 16.6366 -3.82707
ltibia 94.1305
lfoot -30.822 -20.2664
ltoes 0.231182
45
root 0.576353 13.1165 -0.786836 26.9847 -88.4756 -44.988
lowerback 41.9967 -2.08344 3.38725
upperback 3.11312 -2.05697 -1.77325
thorax -17.0278 -1.40609 -2.66959
lowerneck 6.57213 1.74421 -0.846355
upperneck 1.35469 2.20487 -0.554766
head -0.669959 1.08429 -0.0844192
rclavicle -2.5842e-015 -1.51076e-014
rhumerus 66.0686 2.80373 -96.3516
rradius 7.63502
rwrist 58.9319
rhand -19.2734 7.31866
rfingers 7.12502
rthumb 7.04124 -22.5442
lclavicle -2.5842e-015 -1.51076e-014
lhumerus 67.7807 2.83841 102.237
lradius 5.89448
lwrist -77.2536
lhand -17.3781 4.0083
lfingers 7.12502
lthumb 8.87048 33.8019
rfemur -32.311 -24.1301 2.25177
rtibia 98.1974
rfoot -17.997 23.2585
rtoes -10.5973
lfemur -34.53 17.4678 -3.13716
ltibia 96.4022
lfoot -30.6579 -21.2551
ltoes -0.0585294
46
root 0.590287 12.9127 -0.787887 28.5939 -88.4392 -46.9529
lowerback 42.5456 -2.11406 3.46469
upperback 3.16748 -2.0573 -1.75465
thorax -17.1463 -1.41745 -2.67782
lowerneck 6.62237 1.7414 -0.807639
upperneck 1.11191 2.2045 -0.611024
head -0.753514 1.08766 -0.110012
rclavicle 4.96962e-016 -1.03368e-014
rhumerus 66.3189 2.84107 -96.1678
rradius 7.65402
rwrist 58.8639
rhand -19.3351 7.24925
rfingers 7.12502
rthumb 6.98168 -22.6156
lclavicle 4.96962e-016 -1.03368e-014
lhumerus 67.8599 2.83485 102.147
lradius 5.97387
lwrist -76.9312
lhand -17.5065 3.94831
lfingers 7.12502
lthumb 8.74657 33.7471
rfemur -33.1398 -24.9899 1.50093
rtibia 100.302
rfoot -17.8727 24.4195
rtoes -10.2736
lfemur -35.6442 18.3271 -2.34998
ltibia 98.6788
lfoot -30.3339 -22.4686
ltoes 0.0143262
47
root 0.602715 12.7061 -0.789982 30.2397 -88.4017 -48.9775
lowerback 43.0864 -2.13274 3.5448
upperback 3.24093 -2.04341 -1.73942
thorax -17.2344 -1.4235 -2.69833
lowerneck 6.74099 1.72525 -0.792427
upperneck 0.781882 2.18422 -0.625106
head -0.877291 1.08126 -0.119624
rclavicle 3.97569e-015 4.37326e-015
rhumerus 66.572 2.83161 -95.9726
rradius 7.69017
rwrist 58.7357
rhand -19.39 7.25868
rfingers 7.12502
rthumb 6.92864 -22.6079
lclavicle 3.97569e-015 4.37326e-015
lhumerus 67.9355 2.79932 102.057
lradius 6.08692
lwrist -76.7036
lhand -17.5882 3.88916
lfingers 7.12502
lthumb 8.6677 33.6912
rfemur -33.9069 -25.8623 0.691143
rtibia 102.38
rfoot -17.7333 25.6349
rtoes -9.92718
lfemur -36.7213 19.2606 -1.50194
ltibia 100.934
lfoot -29.996 -23.6886
ltoes -0.00470755
